<svg width="21" height="22" viewBox="0 0 21 22" fill="none" xmlns="http://www.w3.org/2000/svg">
<path d="M1 11C1 6.522 1 4.282 2.391 2.891C3.782 1.5 6.021 1.5 10.501 1.5C14.979 1.5 17.218 1.5 18.609 2.891C20 4.282 20 6.521 20 11C20 15.478 20 17.718 18.609 19.109C17.218 20.5 14.979 20.5 10.5 20.5C6.022 20.5 3.783 20.5 2.391 19.109C1.001 17.717 1 15.479 1 11Z" stroke="white" stroke-width="1.5" stroke-linecap="round" stroke-linejoin="round"/>
<path d="M5.5 16L9.694 11.807M9.694 11.807L5.5 6H8.277L11.307 10.194L15.5 6M9.694 11.807L12.722 16H15.5L11.307 10.193" stroke="white" stroke-width="1.5" stroke-linecap="round" stroke-linejoin="round"/>
</svg>
